<svg width="243" height="159" viewBox="0 0 243 159" fill="none" xmlns="http://www.w3.org/2000/svg">
<g clip-path="url(#clip0)">
<path d="M222.206 108.717C222.206 110.678 221.865 112.496 221.186 114.168C220.506 115.84 219.484 117.366 218.125 118.745C216.766 120.122 215.247 121.159 213.573 121.849C211.899 122.539 210.07 122.885 208.093 122.885C206.415 122.885 204.833 122.623 203.35 122.1C201.866 121.577 200.479 120.791 199.195 119.747C197.835 118.648 196.737 117.356 195.904 115.874C195.115 114.469 194.564 112.891 194.252 111.145H192.024V122.331H186.504V95.1021H192.024V105.846H200.077L199.854 106.909L199.774 107.383L199.735 107.853L199.722 108.56C199.722 109.86 199.923 111.051 200.324 112.125C200.723 113.196 201.325 114.163 202.127 115.022C202.925 115.879 203.831 116.521 204.84 116.947C205.849 117.373 206.972 117.586 208.203 117.586C210.514 117.586 212.489 116.767 214.122 115.134C214.939 114.317 215.554 113.375 215.961 112.313C216.37 111.242 216.575 110.043 216.575 108.717C216.575 106.322 215.88 104.305 214.492 102.668C213.696 101.73 212.751 101.024 211.662 100.555C210.569 100.084 209.322 99.8479 207.927 99.8479C207.086 99.8479 206.3 99.9439 205.573 100.136C204.847 100.327 204.173 100.614 203.556 100.998C203.004 101.341 202.503 101.754 202.056 102.228C201.608 102.707 201.211 103.255 200.867 103.869L200.775 104.033L194.831 104.047L194.986 103.614C195.455 102.309 196.093 101.121 196.897 100.052C197.703 98.982 198.676 98.0285 199.817 97.1958C201.024 96.3137 202.321 95.6507 203.703 95.2101C205.084 94.7695 206.548 94.5487 208.093 94.5487C210.052 94.5487 211.868 94.8926 213.538 95.5777C215.207 96.2636 216.726 97.2917 218.095 98.6585C220.835 101.398 222.206 104.752 222.206 108.717L222.206 108.717ZM242.649 100.401H236.059C235.488 100.401 234.981 100.422 234.545 100.461C234.105 100.501 233.719 100.561 233.394 100.64C233.091 100.713 232.804 100.839 232.541 101.012C232.274 101.187 232.024 101.415 231.796 101.694C231.564 101.977 231.375 102.284 231.232 102.61C231.086 102.94 230.983 103.295 230.923 103.673C230.861 104.061 230.813 104.478 230.781 104.919C230.75 105.353 230.734 105.808 230.734 106.28V122.331H225.214V106.889C225.214 105.962 225.238 105.138 225.284 104.419C225.33 103.7 225.402 103.082 225.496 102.57C225.838 100.626 226.578 99.0463 227.711 97.8365C228.28 97.2278 228.935 96.7236 229.669 96.3254C230.402 95.929 231.219 95.6335 232.116 95.4425C232.671 95.3279 233.361 95.2413 234.184 95.1861C235.003 95.131 235.964 95.102 237.056 95.102H242.972V100.401H242.649L242.649 100.401Z" fill="#D23766"/>
<path fill-rule="evenodd" clip-rule="evenodd" d="M5.60235 140.444C2.14756 150.416 -1.18962 161.019 0.413824 158.36C5.8236 149.387 10.5667 138.756 15.9728 127.743C32.0422 95.0102 51.6308 75.1592 77.162 49.6825C88.7415 38.1276 124.272 13.8087 139.327 15.8486C156.61 18.1906 159.099 38.9789 156.758 59.6698C151.207 59.8751 145.583 60.4555 139.667 61.3454C106.092 66.3966 60.2697 86.0769 62.7368 85.5094C82.9241 80.8658 89.5597 79.28 138.695 74.9829C144.16 74.5049 149.405 74.31 154.373 74.3113C152.497 83.2933 150.109 91.3188 148.17 96.5921C143.901 108.198 139.144 120.555 137.664 122.245L166.904 121.761C167 121.486 174.26 99.494 175.474 94.6427C177.136 87.9978 178.426 81.7762 179.432 75.8897C186.062 76.6899 191.41 77.6006 195.12 78.1218C208.015 79.9344 223.987 81.6702 223.12 78.2406C219.703 64.7186 193.411 23.0432 183.983 19.3748C183.381 19.1406 184.119 20.023 184.709 20.8269C188.931 26.5813 208.072 65.9885 204.073 66.8156C203.896 67.465 197.309 64.9707 188.416 62.8665C186.018 62.2992 183.673 61.8114 181.367 61.3979C192.033 -57.0154 50.6722 10.3526 5.60235 140.444V140.444Z" fill="url(#paint0_linear)"/>
<path d="M47.965 138.256H40.9465V157.722H38.0821V138.256H31.0786V135.887H47.965V138.256ZM64.9714 135.887H67.8508V157.722H64.9714V140.895L54.2187 157.722H51.3243V135.887H54.2187V152.713L64.9714 135.887ZM89.7762 157.722H86.8818V138.256H76.1141V157.722H73.2347V135.887H89.7762V157.722ZM111.822 147.509C111.822 149.649 111.462 151.518 110.742 153.118C110.022 154.708 109.002 155.922 107.682 156.762C106.363 157.602 104.823 158.022 103.063 158.022C101.344 158.022 99.8191 157.602 98.4893 156.762C97.1596 155.912 96.1248 154.708 95.385 153.148C94.6552 151.578 94.2802 149.764 94.2602 147.704V146.129C94.2602 144.03 94.6252 142.175 95.355 140.566C96.0849 138.956 97.1146 137.726 98.4444 136.876C99.7841 136.017 101.314 135.587 103.033 135.587C104.783 135.587 106.323 136.012 107.652 136.861C108.992 137.701 110.022 138.926 110.742 140.536C111.462 142.135 111.822 144 111.822 146.129V147.509ZM108.957 146.099C108.957 143.51 108.437 141.525 107.397 140.146C106.358 138.756 104.903 138.061 103.033 138.061C101.214 138.061 99.7791 138.756 98.7293 140.146C97.6895 141.525 97.1546 143.445 97.1246 145.904V147.509C97.1246 150.019 97.6495 151.993 98.6993 153.433C99.7591 154.863 101.214 155.577 103.063 155.577C104.923 155.577 106.363 154.903 107.382 153.553C108.402 152.193 108.927 150.249 108.957 147.719V146.099ZM129.683 138.256H119.155V157.722H116.261V135.887H129.683V138.256ZM136.116 149.174V157.722H133.237V135.887H141.29C143.68 135.887 145.549 136.496 146.899 137.716C148.259 138.936 148.939 140.551 148.939 142.56C148.939 144.68 148.274 146.314 146.944 147.464C145.624 148.604 143.73 149.174 141.26 149.174H136.116ZM136.116 146.819H141.29C142.83 146.819 144.01 146.459 144.83 145.739C145.649 145.01 146.059 143.96 146.059 142.59C146.059 141.29 145.649 140.251 144.83 139.471C144.01 138.691 142.885 138.286 141.455 138.256H136.116V146.819ZM162.601 152.023H153.453L151.398 157.722H148.429L156.767 135.887H159.286L167.64 157.722H164.685L162.601 152.023ZM154.323 149.654H161.746L158.027 139.441L154.323 149.654ZM181.362 138.076H181.827C183.476 138.086 184.981 138.471 186.341 139.231C187.7 139.991 188.755 141.04 189.505 142.38C190.265 143.71 190.645 145.2 190.645 146.849C190.645 148.509 190.265 150.014 189.505 151.363C188.745 152.713 187.695 153.768 186.356 154.528C185.016 155.277 183.526 155.662 181.887 155.682H181.362V158.622H178.572V155.682H178.153C176.483 155.682 174.963 155.302 173.593 154.543C172.234 153.783 171.174 152.733 170.414 151.393C169.664 150.054 169.289 148.549 169.289 146.879C169.289 145.21 169.664 143.705 170.414 142.365C171.174 141.025 172.234 139.976 173.593 139.216C174.963 138.456 176.483 138.076 178.153 138.076H178.572V134.987H181.362V138.076ZM178.153 140.341C176.273 140.341 174.783 140.92 173.683 142.08C172.594 143.23 172.049 144.83 172.049 146.879C172.049 148.939 172.594 150.543 173.683 151.693C174.773 152.833 176.273 153.403 178.183 153.403H178.572V140.341H178.153ZM181.362 140.341V153.403H181.782C183.691 153.403 185.181 152.818 186.251 151.648C187.331 150.468 187.87 148.869 187.87 146.849C187.87 144.85 187.331 143.265 186.251 142.095C185.181 140.925 183.671 140.341 181.722 140.341H181.362ZM208.041 135.887H210.921V157.722H208.041V140.895L197.288 157.722H194.394V135.887H197.288V152.713L208.041 135.887ZM227.597 157.722V149.219H222.558L218.044 157.722H214.97L220.039 148.424C217.219 147.314 215.81 145.33 215.81 142.47C215.81 140.391 216.489 138.776 217.849 137.626C219.219 136.466 221.118 135.887 223.548 135.887H230.491V157.722H227.597ZM218.689 142.47C218.689 143.79 219.099 144.85 219.919 145.649C220.749 146.449 221.898 146.854 223.368 146.864H227.597V138.256H223.503C221.943 138.256 220.749 138.626 219.919 139.366C219.099 140.106 218.689 141.14 218.689 142.47Z" fill="#D23766"/>
</g>
<defs>
<linearGradient id="paint0_linear" x1="111.577" y1="0" x2="111.577" y2="158.775" gradientUnits="userSpaceOnUse">
<stop stop-color="#D23766"/>
<stop offset="1" stop-color="#D23766"/>
</linearGradient>
<clipPath id="clip0">
<rect width="242.974" height="158.775" fill="white"/>
</clipPath>
</defs>
</svg>
